<mxfile host="app.diagrams.net" modified="2023-08-07T11:57:47.621Z" agent="Mozilla/5.0 (Windows NT 10.0; Win64; x64) AppleWebKit/537.36 (KHTML, like Gecko) Chrome/115.0.0.0 Safari/537.36" etag="q08aV6CKlnTSS_4Rf5jm" version="21.6.6" type="github">
  <diagram name="Page-1" id="BaNQtHHIKWiAanLEe-mm">
    <mxGraphModel dx="1434" dy="790" grid="1" gridSize="10" guides="1" tooltips="1" connect="1" arrows="1" fold="1" page="1" pageScale="1" pageWidth="827" pageHeight="1169" math="0" shadow="0">
      <root>
        <mxCell id="0" />
        <mxCell id="1" parent="0" />
        <mxCell id="pDb6rfncSSiSVPvCsYSN-2" value="Data provider&lt;br&gt;NHSE" style="whiteSpace=wrap;html=1;aspect=fixed;" vertex="1" parent="1">
          <mxGeometry x="294" y="80" width="120" height="120" as="geometry" />
        </mxCell>
        <mxCell id="pDb6rfncSSiSVPvCsYSN-3" value="" style="endArrow=classic;html=1;rounded=0;exitX=0.633;exitY=1;exitDx=0;exitDy=0;exitPerimeter=0;" edge="1" parent="1" source="pDb6rfncSSiSVPvCsYSN-2">
          <mxGeometry width="50" height="50" relative="1" as="geometry">
            <mxPoint x="344" y="200" as="sourcePoint" />
            <mxPoint x="360" y="300" as="targetPoint" />
            <Array as="points">
              <mxPoint x="360" y="200" />
            </Array>
          </mxGeometry>
        </mxCell>
        <mxCell id="pDb6rfncSSiSVPvCsYSN-4" value="Biscom sft" style="text;html=1;strokeColor=none;fillColor=none;align=center;verticalAlign=middle;whiteSpace=wrap;rounded=0;rotation=0;" vertex="1" parent="1">
          <mxGeometry x="324" y="230" width="60" height="30" as="geometry" />
        </mxCell>
        <mxCell id="pDb6rfncSSiSVPvCsYSN-5" value="LASER&lt;br&gt;Tier 3 VER" style="rounded=1;whiteSpace=wrap;html=1;" vertex="1" parent="1">
          <mxGeometry x="310" y="310" width="120" height="60" as="geometry" />
        </mxCell>
        <mxCell id="pDb6rfncSSiSVPvCsYSN-6" value="Research Out put&lt;br&gt;&lt;br&gt;Project team" style="whiteSpace=wrap;html=1;aspect=fixed;" vertex="1" parent="1">
          <mxGeometry x="540" y="410" width="90" height="90" as="geometry" />
        </mxCell>
        <mxCell id="pDb6rfncSSiSVPvCsYSN-7" value="" style="endArrow=classic;html=1;rounded=0;exitX=1;exitY=1;exitDx=0;exitDy=0;entryX=0;entryY=0;entryDx=0;entryDy=0;" edge="1" parent="1" source="pDb6rfncSSiSVPvCsYSN-5" target="pDb6rfncSSiSVPvCsYSN-6">
          <mxGeometry width="50" height="50" relative="1" as="geometry">
            <mxPoint x="390" y="430" as="sourcePoint" />
            <mxPoint x="440" y="380" as="targetPoint" />
          </mxGeometry>
        </mxCell>
        <mxCell id="pDb6rfncSSiSVPvCsYSN-10" value="Biscom sft" style="text;html=1;strokeColor=none;fillColor=none;align=center;verticalAlign=middle;whiteSpace=wrap;rounded=0;rotation=0;" vertex="1" parent="1">
          <mxGeometry x="460" y="350" width="60" height="30" as="geometry" />
        </mxCell>
        <mxCell id="pDb6rfncSSiSVPvCsYSN-11" value="" style="ellipse;whiteSpace=wrap;html=1;" vertex="1" parent="1">
          <mxGeometry x="310" y="480" width="120" height="80" as="geometry" />
        </mxCell>
      </root>
    </mxGraphModel>
  </diagram>
</mxfile>
